<?xml version="1.0" encoding="utf-8"?>
<!-- Generator: Adobe Illustrator 16.0.0, SVG Export Plug-In . SVG Version: 6.00 Build 0)  -->
<!DOCTYPE svg PUBLIC "-//W3C//DTD SVG 1.0//EN" "http://www.w3.org/TR/2001/REC-SVG-20010904/DTD/svg10.dtd">
<svg version="1.0" id="Layer_1" xmlns="http://www.w3.org/2000/svg" xmlns:xlink="http://www.w3.org/1999/xlink" x="0px" y="0px"
	 width="100px" height="100px" viewBox="0 0 100 100" enable-background="new 0 0 100 100" xml:space="preserve">
<g>
	<path fill="none" d="M39.472,37.941c-8.905-2.059-15.087,2.194-16.683,4.918c3.39-2.083,8.457-3.25,12.073-2.126
		c0.717,0.223,1.5,1.379-0.311,1.373c-2.909-0.008-7.312,0.155-9.538,3.013c7.975-2.725,13.073-1.302,16.122,0.186
		c3.689,1.801,7.808,5.594,10.296,8.188h2.258C49.441,49.242,48.378,40.003,39.472,37.941z"/>
	<path fill="none" d="M12.178,51.189c-5.833,1.816-7.051,6.259-7.465,7.443c-0.36,1.03,0.111,1.562,0.598,0.81
		c0.478-0.737,0.963-1.463,4.077-1.405c2.89,0.052,4.779,0.561,5.427-1.003c0.228-0.548,0.936-1.546,1.563,0
		c0.591,1.46,3.141,1.795,5.235,1.761c0.669-0.01,1.231,0.592,1.446,1.097c0.232,0.548,1.212,1.179,1.379-0.183
		c0.247-2.021-4.696-5.949-5.068-7.893c-1.778,1.375-3.362,3.856-4.508,4.487c-0.798,0.438-1.967,0.116-1.847-0.89
		c0.132-1.097,1.916-2.709,2.401-3.447C16.344,50.549,17.196,49.627,12.178,51.189z"/>
	<path fill="none" d="M73.079,60.76c0.312,0.223-0.311,3.502,2.881,5.494c3.19,1.994,6.247,5.183,6.203,1.018
		c-0.037-3.479-3.245-8.061-8.374-8.241C71.701,58.959,72.769,60.539,73.079,60.76z"/>
	<path fill="none" d="M81.706,70.723c-0.617-0.498-1.313-0.661-1.557-0.359c-0.243,0.299,0.058,0.949,0.675,1.449
		c0.616,0.498,1.313,0.662,1.558,0.36C82.623,71.873,82.322,71.224,81.706,70.723z"/>
	<path fill="none" d="M92.331,83.889c-1.19-0.496-3.346-1.053-4.939-3.379c-1.915-2.791-5.982-3.798-8.951-6.678
		c-2.761-2.68-3.682-5.947-5.006-5.186c-1.329,0.766-2.961,1.506-4.909,1.682c3.678,4.253,12.995,7.756,16.54,10.549
		c3.104,2.442,5.787,3.686,7.347,3.453C92.632,84.297,92.844,84.104,92.331,83.889z"/>
	<path d="M97.271,70.597c-1.065-6.87-5.161-15.441-8.353-20.759C85.706,44.484,78.243,35,77.553,34.085
		c-2.153-2.848,3.926-19.538-4.03-23.28c-1.129-0.531-1.616-0.021-1.616,0.709s-0.894,15.215-7.375,14.688
		c-2.991-0.243-16.972-3.279-29.2,1.684c-10.063,4.084-18.249,14.372-22.707,21.223C12.337,49.553,2.446,50.43,2.5,61.908
		c0.006,1.239,0.687,2.286,1.319,0.625c0.631-1.66,2.094-1.495,3.091-2.293c0.997-0.798,0.997-0.965,4.719-0.766
		c3.722,0.2,3.49-2.293,3.854-2.657c0.299,0.798,0.132,3.29,2.359,2.825c2.226-0.467,1.762,1.461,2.493,0.73
		c0.73-0.73,0.798,0.83,1.461,0.631c0.666-0.199,1.563,0.665,1.528,1.396c-0.033,0.73,0.631,1.661,1.197,0.753
		c4.473-7.189-5.051-9.459-4.388-13.113c-1.528,1.15-3.927,3.642-5.085,5.131c-0.66,0.85-1.15,0.238-0.809-0.213
		c5.384-7.08,12.339-10.331,18.665-10.302c7.921,0.037,14.502,7,17.671,9.507c0.938,0.742,3.897,0.164,7.53,0.462
		c6.727,0.548,7.12,7.148,11.829,9.817c2.459,1.395,2.313,3.234,1.152,3.723c-1.159,0.486-3.842,1.027-4.968,1.179
		c5.915,6.778,14.379,9.515,16.799,11.183c2.991,2.062,5.713,4.775,9.438,4.784c2.261,0.006,2.525-1.463,2.525-1.463
		c0.647-0.14,2.07-1.716,1.851-3.135C96.508,79.293,98.068,75.736,97.271,70.597z M15.413,51.967
		c-0.485,0.738-2.269,2.351-2.401,3.447c-0.121,1.006,1.049,1.33,1.847,0.89c1.147-0.631,2.73-3.112,4.508-4.487
		c0.372,1.943,5.313,5.87,5.068,7.893c-0.167,1.363-1.147,0.73-1.379,0.183c-0.215-0.505-0.776-1.106-1.446-1.097
		c-2.094,0.032-4.642-0.303-5.235-1.761c-0.627-1.546-1.334-0.548-1.563,0c-0.648,1.562-2.537,1.055-5.427,1.003
		c-3.112-0.056-3.599,0.669-4.077,1.405c-0.487,0.754-0.958,0.221-0.598-0.81c0.416-1.185,1.632-5.627,7.465-7.443
		C17.196,49.627,16.344,50.549,15.413,51.967z M51.435,53.494c-2.487-2.594-6.605-6.387-10.295-8.188
		c-3.049-1.49-8.147-2.911-16.122-0.186c2.226-2.857,6.628-3.022,9.537-3.012c1.809,0.006,1.028-1.15,0.311-1.373
		c-3.616-1.124-8.685,0.044-12.073,2.126c1.596-2.725,7.776-6.978,16.682-4.918c8.905,2.062,9.969,11.299,14.222,15.553h-2.263
		V53.494z M73.787,59.032c5.13,0.181,8.337,4.763,8.374,8.241c0.044,4.165-3.013,0.975-6.203-1.018
		c-3.191-1.994-2.569-5.273-2.88-5.494C72.767,60.541,71.701,58.959,73.787,59.032z M82.38,72.173
		c-0.244,0.302-0.942,0.14-1.558-0.36s-0.918-1.15-0.675-1.449c0.243-0.302,0.941-0.141,1.557,0.359
		C82.322,71.224,82.623,71.873,82.38,72.173z M92.41,84.33c-1.558,0.232-4.244-1.011-7.347-3.453
		c-3.545-2.793-12.862-6.296-16.54-10.549c1.95-0.176,3.58-0.916,4.909-1.682c1.325-0.762,2.245,2.506,5.007,5.186
		c2.968,2.88,7.035,3.887,8.95,6.678c1.596,2.326,3.751,2.883,4.939,3.379C92.844,84.104,92.632,84.297,92.41,84.33z"/>
	<path d="M91.977,45.209c-1.313-1.191-2.016,2.88-3.522,2.748c2.259,3.057,4.874,8.418,5.716,10.723
		C96.098,54.758,95.397,48.312,91.977,45.209z"/>
	<path d="M70.177,67.584c1.463-0.332,0.707-1.838-1.197-2.791c-4.253-2.127-5.249-9.305-11.298-9.504
		c-6.047-0.199-13.031-0.088-15.223-0.088s0.669,7.664,10.04,11.387C61.869,70.309,68.716,67.916,70.177,67.584z"/>
</g>
</svg>
