<?xml version="1.0" encoding="utf-8"?>
<!-- Generator: Adobe Illustrator 16.0.0, SVG Export Plug-In . SVG Version: 6.00 Build 0)  -->
<!DOCTYPE svg PUBLIC "-//W3C//DTD SVG 1.0//EN" "http://www.w3.org/TR/2001/REC-SVG-20010904/DTD/svg10.dtd">
<svg version="1.0" id="Layer_1" xmlns="http://www.w3.org/2000/svg" xmlns:xlink="http://www.w3.org/1999/xlink" x="0px" y="0px"
	 width="100px" height="100px" viewBox="0 0 100 100" enable-background="new 0 0 100 100" xml:space="preserve">
<g>
	<polygon points="66.02,47.259 79.777,42.917 78.33,41.153 66.882,44.616 	"/>
	<polygon points="50.209,32.602 51.33,33.394 51.33,19.711 50.209,20.148 49.09,19.711 49.09,33.394 	"/>
	<path d="M40.921,86.23l1.684,2.661c2.4,0.455,4.864,0.703,7.394,0.703c2.694,0,5.327-0.274,7.87-0.79l1.712-2.707
		c-3.058,0.814-6.271,1.252-9.582,1.252C46.873,87.35,43.827,86.962,40.921,86.23z"/>
	<path d="M36.974,14.998l-3.026-1.179c-4.999,2.228-9.456,5.452-13.114,9.439l0.222,3.167
		C25.221,21.321,30.701,17.339,36.974,14.998z"/>
	<path d="M10.801,55.33l-0.03-0.033c0.707,5.271,2.346,9.955,4.92,14.364l2.973,0.628c-3.309-5.093-5.41-11.043-5.894-17.438
		L10.801,55.33z"/>
	<path d="M79.332,26.918l0.223-3.221c-3.679-4.133-8.208-7.484-13.313-9.79l-3.011,1.173C69.617,17.51,75.164,21.64,79.332,26.918z"
		/>
	<path d="M87.268,52.37c-0.42,6.633-2.574,12.807-6.023,18.057l3.149-0.853c2.533-4.427,4.231-9.394,4.888-14.678L87.268,52.37z"/>
	<path d="M49.999,95.254c-4.822,0-9.464-0.762-13.826-2.163L33.4,94.502c5.168,1.934,10.762,2.998,16.599,2.998
		c5.968,0,11.679-1.115,16.948-3.135l-2.789-1.391C59.701,94.446,54.941,95.254,49.999,95.254z"/>
	<path d="M36.819,6.707l1.39-2.725C26.198,7.063,16.018,14.732,9.636,24.995l3.017-0.514C18.402,16.096,26.89,9.736,36.819,6.707z"
		/>
	<path d="M87.288,24.395l3.019,0.519C83.928,14.703,73.791,7.075,61.838,3.992l1.529,2.771
		C73.186,9.804,81.573,16.107,87.288,24.395z"/>
	<path d="M4.742,50.001c0-0.167,0.01-0.342,0.015-0.511L2.572,47.38c-0.049,0.866-0.071,1.742-0.071,2.621
		c0,11.824,4.354,22.644,11.524,30.968l0.473-2.952C8.397,70.309,4.742,60.575,4.742,50.001z"/>
	<path d="M97.44,47.773l-2.188,2.116c0,0.04,0,0.074,0,0.112c0,10.3-3.463,19.804-9.277,27.419l0.525,2.937
		c6.863-8.237,10.998-18.823,10.998-30.355C97.498,49.253,97.479,48.511,97.44,47.773z"/>
	<polygon points="57.303,64.274 65.689,76.206 67.063,74.27 67.139,74.251 60.058,64.274 	"/>
	<polygon points="33.538,44.616 22.05,41.044 20.787,42.783 34.399,47.259 	"/>
	<polygon points="40.136,64.274 33.363,74.27 34.506,76.085 42.891,64.274 	"/>
	<path d="M50.209,34.434c-0.12,0.085-0.522,0.368-1.119,0.792c-3.396,2.403-13.146,9.289-13.847,9.785
		c0.01,0.036,0.031,0.102,0.057,0.184c0.01,0.02,0.015,0.046,0.023,0.072c0.729,2.231,5.413,16.61,5.705,17.512
		c0.761,0,10.371,0,15.395,0c1.154,0,2.066,0,2.572,0c0.191,0,0.326,0,0.395,0c0.291-0.902,4.975-15.281,5.703-17.512
		c0.009-0.026,0.016-0.052,0.025-0.072c0.024-0.082,0.047-0.147,0.059-0.184c-0.706-0.496-10.454-7.381-13.848-9.785
		C50.733,34.802,50.329,34.52,50.209,34.434z"/>
	<path d="M35.404,12.78c0.107,0.042,0.294,0.117,0.544,0.207c0.688,0.271,1.853,0.728,3.241,1.267
		c3.302,1.282,7.818,3.041,9.901,3.853c0.631,0.246,1.04,0.406,1.119,0.438c0.084-0.033,0.493-0.192,1.121-0.438
		c2.043-0.792,6.444-2.505,9.727-3.785c1.326-0.518,2.471-0.961,3.205-1.247c0.336-0.133,0.59-0.23,0.73-0.284
		c-0.407-0.738-2.18-3.941-3.653-6.606c-0.563-1.015-1.077-1.95-1.46-2.645c-3.189-0.675-6.494-1.04-9.88-1.04
		c-3.389,0-6.699,0.365-9.888,1.045c-0.352,0.685-0.822,1.608-1.334,2.61C37.417,8.828,35.776,12.049,35.404,12.78z"/>
	<path d="M80.979,24.819c-0.01,0.11-0.025,0.292-0.036,0.521c-0.052,0.707-0.138,1.948-0.241,3.424
		c-0.293,4.12-0.709,10.078-0.813,11.57c-0.01,0.183-0.021,0.304-0.021,0.343c0.071,0.092,0.561,0.702,1.279,1.608
		c1.562,1.961,4.229,5.308,6.197,7.785c0.937,1.173,1.715,2.15,2.143,2.684c0.121,0.153,0.219,0.279,0.277,0.354
		c0.58-0.561,3.2-3.087,5.438-5.252c0.787-0.759,1.514-1.465,2.105-2.031c-0.611-6.942-2.715-13.451-5.994-19.224
		c-0.811-0.138-1.826-0.309-2.904-0.5C85.338,25.576,81.768,24.958,80.979,24.819z"/>
	<path d="M83.359,71.406c-0.021,0.003-0.06,0.015-0.094,0.024c-0.475,0.128-1.74,0.47-3.352,0.907
		c-4.452,1.207-11.529,3.124-11.902,3.225c-0.197,0.313-3.776,5.973-6.239,9.875c-0.763,1.2-1.413,2.232-1.829,2.896
		c-0.196,0.308-0.344,0.536-0.418,0.661c0.695,0.348,3.821,1.903,6.592,3.285c0.977,0.488,1.91,0.954,2.68,1.334
		c6.301-2.726,11.904-6.778,16.441-11.804c-0.139-0.793-0.317-1.777-0.512-2.833C84.167,75.863,83.502,72.198,83.359,71.406z"/>
	<path d="M10.531,52.987c0.036,0.041,0.092,0.092,0.118,0.12c0.242-0.301,1.009-1.264,2.016-2.527
		c1.991-2.503,4.934-6.195,6.609-8.296c0.721-0.907,1.209-1.516,1.282-1.608c-0.005-0.039-0.01-0.161-0.026-0.343
		c-0.105-1.556-0.559-7.989-0.846-12.112c-0.117-1.67-0.207-2.96-0.236-3.377c0-0.005,0-0.015,0-0.024
		c-0.833,0.148-4.745,0.818-7.909,1.367c-1.112,0.192-2.135,0.368-2.897,0.501c-3.192,5.641-5.275,11.991-5.922,18.757
		c0.542,0.524,1.283,1.235,2.1,2.025C7.019,49.597,9.739,52.226,10.531,52.987z"/>
	<path d="M40.903,88.995c-0.067-0.104-0.187-0.294-0.348-0.545c-0.393-0.621-1.035-1.633-1.788-2.827
		c-1.716-2.719-4.024-6.364-5.337-8.444c-0.573-0.908-0.962-1.52-1.026-1.616c-0.03-0.007-0.107-0.029-0.233-0.064
		c-1.378-0.373-8.161-2.209-12.189-3.3c-1.452-0.395-2.548-0.691-2.911-0.789c-0.013,0.101-0.036,0.255-0.067,0.443
		c-0.22,1.384-0.78,4.876-1.232,7.698c-0.181,1.115-0.347,2.126-0.458,2.849c4.526,4.843,10.039,8.751,16.231,11.368
		c0.739-0.371,1.672-0.851,2.668-1.361C36.97,91.001,40.19,89.361,40.903,88.995z"/>
</g>
</svg>
