<?xml version="1.0" encoding="utf-8"?>
<!-- Generator: Adobe Illustrator 16.0.0, SVG Export Plug-In . SVG Version: 6.00 Build 0)  -->
<!DOCTYPE svg PUBLIC "-//W3C//DTD SVG 1.0//EN" "http://www.w3.org/TR/2001/REC-SVG-20010904/DTD/svg10.dtd">
<svg version="1.0" id="Layer_1" xmlns="http://www.w3.org/2000/svg" xmlns:xlink="http://www.w3.org/1999/xlink" x="0px" y="0px"
	 width="100px" height="100px" viewBox="0 0 100 100" enable-background="new 0 0 100 100" xml:space="preserve">
<g>
	<g>
		<g>
			<path d="M52.146,2.527c1.479-0.14,2.92,0.303,4.388,0.375c2.842,0.024,5.639,0.698,8.324,1.583
				c3.094,1.015,5.846,2.807,8.835,4.063c1.158,0.494,2.22,1.185,3.198,1.965c2.673,2.206,4.844,4.979,6.586,7.963
				c1.964,3.421,3.303,7.3,3.27,11.279c0.021,1.024-0.368,2.012-0.297,3.038c0.038,0.75,0.352,1.464,0.309,2.222
				c-0.088,1.066-0.259,2.226-1.052,3.02c-0.181,0.249-0.577,0.422-0.508,0.779c0.109,0.57,0.584,0.971,0.745,1.519
				c0.202,0.671,0.207,1.376,0.197,2.07c-0.03,1.074-0.534,2.055-0.765,3.093c-0.254,1.125-0.662,2.214-0.985,3.324
				c-0.284,1.005-0.47,2.076-0.242,3.11c0.154,0.784,0.513,1.503,0.927,2.178c0.664,1.09,1.239,2.27,2.177,3.162
				c0.957,0.891,1.928,1.826,2.483,3.032c0.575,0.976,1.116,1.982,1.437,3.072c0.527,1.664,0.479,3.469-0.01,5.131
				c-0.244,0.969-0.785,1.861-0.81,2.88c-0.088,1.461,0.615,2.795,1.189,4.094c1.727,3.621,1.264,8.135-1.052,11.399
				c-1.334,1.923-3.195,3.447-5.269,4.521c-2.006,1.054-4.224,1.607-6.43,2.061c-2.099,0.38-4.316,0.582-6.392-0.048
				c-1.178-0.408-2.397-0.702-3.537-1.22c-0.406-0.197-0.824-0.408-1.282-0.438c-0.416-0.052-0.786,0.192-1.111,0.413
				c-1.062,0.751-2.218,1.392-3.493,1.695c-1.996,0.499-4.207,0.38-6.045-0.598c-0.978-0.496-1.702-1.437-2.802-1.695
				c-0.669-0.128-1.405-0.048-2.001,0.302c-0.748,0.408-1.454,0.959-1.879,1.714c-0.361,0.584-0.43,1.311-0.859,1.861
				c-0.62,0.884-1.679,1.311-2.709,1.489c-1.508,0.251-3.047,0.166-4.566,0.261c-2.958,0.259-5.964,0.524-8.911,0.002
				c-1.963-0.332-3.879-0.985-5.621-1.956c-1.465-0.808-2.803-1.816-4.099-2.868c-0.93-0.776-1.546-1.85-2.037-2.944
				c-0.812-1.802-1.294-3.746-2.266-5.479c-1.785-2.992-4.237-5.521-5.969-8.548c-0.793-1.358-1.236-2.882-1.942-4.281
				c-1.135-1.536-2.606-2.858-3.382-4.637c-0.588-1.32-0.601-2.835-0.19-4.205c0.656-2.218,2.023-4.121,2.949-6.226
				c0.713-1.588,1.171-3.411,0.675-5.132c-0.603-1.925-1.613-3.727-1.877-5.751c-0.145-1.061,0.03-2.201,0.678-3.08
				c0.695-0.95,1.107-2.06,1.582-3.129c0.303-0.721,0.858-1.3,1.16-2.021c0.219-0.52,0.21-1.094,0.299-1.646
				c0.237-1.48,0.789-2.924,0.727-4.441c-0.153-1.903-0.036-3.816,0.118-5.715c0.267-2.604,1.318-5.027,2.226-7.458
				c0.735-2.075,2.002-3.938,3.546-5.499c2.827-2.847,6.397-4.806,10.012-6.465c2.616-1.19,5.53-1.34,8.289-2.013
				c0.663-0.148,1.295-0.401,1.968-0.502c1.344-0.236,2.717-0.07,4.063-0.273c1.275-0.158,2.545-0.485,3.836-0.406
				C49.342,2.75,50.75,2.642,52.146,2.527z M43.399,4.741c-1.002,0.255-2.037,0.304-3.064,0.387
				c-1.032,0.127-2.074,0.138-3.104,0.295c-1.467,0.165-2.874,0.636-4.299,1.002c-1.941,0.509-3.865,1.145-5.617,2.135
				c-1.241,0.691-2.428,1.459-3.64,2.191c-1.472,0.865-2.765,2.031-3.802,3.387c-0.31,0.429-0.611,0.873-0.833,1.355
				c0.189,1.126,0.822,2.132,0.96,3.273c0.096,0.791,0.561,1.457,1.04,2.066c0.634,0.791,0.858,1.805,1.188,2.74
				c0.337,1.005,1.036,1.867,1.227,2.929c0.405,2.202,0.209,4.452,0.354,6.677c0.078,0.641,0.705,0.997,1.236,1.243
				c1.863,0.781,3.909,0.887,5.861,1.337c2.263,0.488,4.558,0.874,6.873,0.967c5.232,0.258,10.46,0.64,15.704,0.575
				c6.145,0.011,12.299-0.23,18.389-1.096c1.74-0.272,3.488-0.401,5.237-0.57c0.9-0.099,1.805-0.253,2.647-0.597
				c-0.629-0.146-1.47-0.109-1.833-0.751c-0.392-1.052-0.501-2.332,0.129-3.318c1.128-1.726,1.583-3.825,2.882-5.449
				c0.521-0.709,1.435-1.09,1.722-1.971c0.496-1.39-0.026-2.886-0.594-4.172c-1.394-2.896-3.343-5.568-5.879-7.567
				c-1.825-1.435-3.905-2.508-6.033-3.418c-2.462-1.045-5.017-1.839-7.564-2.638c-1.631-0.498-3.288-0.927-4.99-1.096
				C56.335,4.542,55.1,4.203,53.83,4.163c-1.327-0.039-2.642,0.253-3.971,0.23C47.704,4.344,45.519,4.247,43.399,4.741z
				 M15.401,37.255c-0.685,0.363-1.254,0.939-1.659,1.599c-0.404,0.929,0.005,1.944,0.272,2.855
				c0.789,2.245,0.572,4.664,0.438,6.993C14.381,49.8,14.345,50.898,14.37,52c0.8,0.332,1.651,0.548,2.407,0.99
				c0.262,0.171,0.568,0.377,0.62,0.712c0.093,0.456-0.158,0.893-0.451,1.221c-0.553,0.598-1.262,1.023-1.954,1.441
				c-0.615,0.365-1.317,0.571-2.032,0.629c-0.604,1.065-0.919,2.263-1.461,3.362c-0.412,0.939-0.934,1.994-0.563,3.039
				c0.64-0.748,1.035-1.66,1.622-2.443c0.508-0.563,1.249-0.817,1.899-1.168c0.039,1.526,0.132,3.155,1.041,4.446
				c-0.552,0.703-0.972,1.534-1.678,2.104c-0.34,0.289-0.804,0.315-1.224,0.232c-0.041,4.152,1.56,8.263,4.237,11.413
				c0.622,0.639,1.097,1.394,1.618,2.11c0.364,0.547,0.788,1.06,1.079,1.65c0.327,0.65,0.6,1.337,1.077,1.895
				c1.075,1.354,1.329,3.11,1.873,4.699c0.629,1.876,1.933,3.488,3.554,4.602c2.045,1.425,4.486,2.168,6.932,2.526
				c1.033,0.149,2.112,0.339,3.131,0.04c0.521-0.143,0.937-0.639,0.887-1.189c-0.154-1.916,0.418-3.901,1.641-5.388
				c0.882-1.065,2.158-1.85,3.554-1.935c1.437-0.169,2.856,0.197,4.235,0.561c1.475,0.398,2.954,0.873,4.49,0.939
				c1.036,0.041,2-0.486,2.729-1.182c1.778-1.682,2.728-4.044,4.554-5.678c1.727-1.362,3.887-1.938,5.912-2.697
				c1.085-0.392,2.396-0.311,3.276-1.146c0.677-0.589,0.356-1.684,1.045-2.258c0.363-0.209,0.75,0.09,0.982,0.368
				c0.514,0.619,0.884,1.37,1.073,2.153c-0.161,0.808-0.65,1.546-1.334,2.006c-0.682,0.478-1.505,0.693-2.311,0.877
				c0.855,1.652,1.435,3.444,2.438,5.023c0.919,0.015,1.896-0.102,2.752,0.304c0.39,0.176,0.608,0.613,0.516,1.033
				c-0.304,1.475-1.731,2.429-1.966,3.927c1.735,0.433,3.512,0.819,5.312,0.731c-0.703-1.173-1.72-2.137-2.32-3.369
				c-0.307-0.639-0.39-1.448,0.012-2.061c0.489-0.805,1.365-1.232,2.145-1.7c1.408-0.803,2.892-1.546,4.511-1.812
				c1.118-0.183,2.358-0.033,3.268,0.698c-0.61,0.453-1.292,0.869-1.648,1.574c0.786,0.715,1.617,1.437,2.133,2.386
				c0.405,0.774,0.394,1.672,0.472,2.521c3.019-2.417,4.789-6.042,5.806-9.701c0.166-0.601,0.433-1.194,0.413-1.833
				c-0.021-0.605-0.209-1.192-0.332-1.776c-0.3-1.263-0.534-2.54-0.96-3.763c-0.463-1.368-1.025-2.714-1.223-4.15
				c0.644-1.596,1.845-3.12,1.662-4.93c-0.315-1.595-1.256-2.979-2.272-4.214c-0.966-1.14-1.941-2.294-3.146-3.193
				c-0.458,0.1-0.916,0.277-1.394,0.216c-0.428-0.104-0.763-0.403-1.135-0.617c-0.743-0.449-1.688-0.513-2.505-0.235
				c-0.57,0.226-0.979,0.743-1.572,0.924c-0.385,0.114-0.733-0.123-1.047-0.307c-0.226,0.471-0.373,0.985-0.665,1.425
				c-0.275,0.39-0.876,0.287-1.163,0.662c-0.725,1.007-1.463,2.017-2.374,2.861c-0.305,0.267-0.525,0.622-0.877,0.826
				c-0.377,0.126-0.712-0.163-0.992-0.37c-0.74-0.596-1.515-1.196-2.011-2.021c-0.57-1.025-0.627-2.234-0.705-3.379
				c-0.197-1.742-0.217-3.5-0.373-5.245c-0.098-0.983-0.501-1.961-0.277-2.955c0.078-0.279,0.191-0.608,0.486-0.722
				c0.311-0.089,0.627,0.057,0.874,0.236c0.601,0.444,1.082,1.017,1.574,1.57c0.317,0.353,0.695,0.674,1.151,0.829
				c0.598,0.204,1.237,0.192,1.856,0.247c-0.136-0.817-0.448-1.604-0.907-2.29c-0.848-1.309-2.054-2.344-2.89-3.661
				c-0.425-0.663-0.73-1.406-0.873-2.183c-2.745,0.044-5.497,0.041-8.239,0.214c-1.349,0.114-2.724-0.056-4.046,0.287
				c-0.272,0.083-0.665,0.212-0.639,0.564c-0.019,1.14-0.982,1.906-1.792,2.562c-2.133,1.766-4.438,3.337-6.925,4.558
				c-1.902,0.899-3.846,1.72-5.854,2.349c-1.689,0.503-3.484,0.888-5.245,0.556c-1.802-0.418-3.479-1.358-4.746-2.699
				c-0.761-0.798-1.415-1.691-2.012-2.615c-0.706-1.124-0.965-2.439-1.424-3.668c-0.478-1.127-1.024-2.267-1.122-3.505
				c-0.041-0.393,0.189-0.825-0.008-1.19c-0.332-0.323-0.845-0.267-1.264-0.393c-1.058-0.291-2.148-0.464-3.203-0.776
				c-1.428-0.417-2.844-0.887-4.244-1.381C17.069,36.967,16.155,36.857,15.401,37.255z"/>
		</g>
		<path d="M25.929,48.58c-0.259-1.184-0.329-2.539-1.265-3.431c-0.717,0.557-0.335,1.53-0.469,2.29
			c-0.36,1.702-1.143,3.272-1.645,4.934c-0.433,1.434-0.477,3.013,0.028,4.433c0.386,1.111,1.041,2.097,1.762,3.013
			c0.378,0.478,0.71,1.045,1.276,1.315c0.302,0.154,0.622-0.06,0.745-0.34c0.701-1.417,1.454-2.818,2.357-4.124
			c0.247-0.315,0.373-0.755,0.165-1.13c-0.442-0.857-1.109-1.591-1.497-2.479C26.755,51.617,26.316,50.103,25.929,48.58z"/>
		<path d="M84.539,57.857c-0.441-0.171-0.896,0.109-1.221,0.392c-0.553,0.494-1.014,1.171-1.047,1.935
			c-0.159,1.912-1.183,3.591-1.674,5.421c-0.259,1.055-0.458,2.123-0.667,3.187c-0.131,0.687-1.057,0.826-1.143,1.529
			c-0.108,1.208-0.097,2.422-0.059,3.628c-0.003,1.037-0.335,2.175,0.268,3.115c0.328-0.338,0.618-0.734,0.725-1.199
			c0.204-0.776,0.264-1.657,0.841-2.268c0.553,0.448,0.601,1.246,1.052,1.778c0.755-0.99,0.752-2.303,1.203-3.429
			c0.285-0.808,0.962-1.443,1.085-2.314c0.138-1.012-0.012-2.037-0.106-3.047c-0.05-1.104-0.111-2.248,0.271-3.305
			c0.471-1.385,1.017-2.797,0.909-4.283C84.947,58.596,84.919,58.1,84.539,57.857z"/>
		<path d="M70.17,62.478c-1.216-1.216-2.835-2.099-4.57-2.21c-1.85-0.159-3.654,0.503-5.26,1.369
			c-0.869,0.466-1.579,1.169-2.419,1.679c-0.831,0.395-1.682,0.739-2.493,1.171c-0.793,0.398-1.524,0.912-2.306,1.337
			c-1.458,0.821-2.976,1.529-4.455,2.314c-1.532,0.836-3.205,1.396-4.704,2.294c-0.742,0.435-1.445,0.971-1.954,1.674
			c1.257,0.441,2.623,0.136,3.856-0.237c1.493-0.451,2.913-1.128,4.43-1.506c2.42-0.65,4.631-1.866,6.988-2.685
			c0.947-0.35,1.947-0.518,2.904-0.853c1.795-0.575,3.606-1.335,5.529-1.23c0.851,0.063,1.715,0.292,2.417,0.796
			c0.463,0.342,0.72,0.902,0.781,1.467c0.164,1.425-0.349,2.845-0.126,4.271c0.078,0.534,0.304,1.043,0.67,1.444
			c0.854-0.94,1.856-1.831,2.327-3.044c0.284-0.693,0.313-1.448,0.275-2.188c1.709,0.471,3.345,1.219,5.109,1.489
			c0.451,0.04,1.087,0.111,1.324-0.383c0.184-0.458-0.135-0.911-0.453-1.218c-0.869-0.836-1.966-1.382-3.034-1.926
			c-1.201-0.629-2.4-1.301-3.397-2.231C71.051,63.62,70.688,62.981,70.17,62.478z"/>
		<path d="M16.37,65.918c0.154-0.365-0.131-0.703-0.357-0.962c-0.945,0.796-1.63,1.831-2.398,2.785
			c0.255,0.162,0.566,0.438,0.881,0.262c0.321-0.25,0.498-0.637,0.779-0.924C15.618,66.668,16.115,66.396,16.37,65.918z"/>
		<path d="M17.049,66.142c-1.089,0.624-1.945,1.588-2.623,2.628c0.302,0.194,0.66,0.401,1.029,0.257
			c0.461-0.235,0.733-0.708,1.129-1.023c0.312-0.29,0.718-0.487,0.954-0.848C17.683,66.742,17.274,66.431,17.049,66.142z"/>
		<path d="M19.027,68.229c-0.364-0.295-0.813-0.879-1.317-0.501c-0.879,0.601-1.502,1.517-2.047,2.422
			c0.237,0.159,0.459,0.354,0.732,0.448c0.311,0.005,0.522-0.254,0.721-0.456C17.725,69.475,18.396,68.869,19.027,68.229z"/>
		<path d="M20.328,69.498c-0.387-0.259-0.879-0.422-1.331-0.244c-0.592,0.219-0.997,0.741-1.365,1.229
			c-0.214,0.307-0.512,0.61-0.49,1.012c0.057,0.608,0.882,0.473,1.169,0.109C19.012,70.931,19.749,70.284,20.328,69.498z"/>
		<path d="M21.038,70.229c-0.873,0.658-1.988,1.221-2.346,2.337c-0.149,0.327,0.232,0.569,0.496,0.664
			c0.516,0.124,0.961-0.242,1.295-0.584c0.481-0.518,0.919-1.077,1.414-1.586C21.625,70.769,21.336,70.493,21.038,70.229z"/>
		<path d="M23.688,72.417c-0.454-0.397-1.13-0.561-1.667-0.226c-0.752,0.477-1.284,1.22-1.848,1.895
			c0.432,0.354,1.033,0.524,1.553,0.256C22.546,73.896,23.085,73.103,23.688,72.417z"/>
		<path d="M24.97,73.844c-0.281-0.307-0.571-0.977-1.081-0.663c-0.878,0.594-1.657,1.352-2.239,2.242
			c0.428,0.299,1.003,0.4,1.479,0.146C23.887,75.176,24.408,74.468,24.97,73.844z"/>
		<path d="M26.731,75.102c-0.297-0.28-0.664-0.788-1.124-0.526c-0.672,0.377-1.349,0.755-1.916,1.279
			c-0.209,0.211-0.453,0.486-0.373,0.808c0.04,0.223,0.139,0.493,0.384,0.553c0.445,0.078,0.854-0.183,1.202-0.418
			C25.583,76.308,26.17,75.71,26.731,75.102z"/>
	</g>
</g>
</svg>
