<?xml version="1.0" encoding="utf-8"?>
<!-- Generator: Adobe Illustrator 16.0.0, SVG Export Plug-In . SVG Version: 6.00 Build 0)  -->
<!DOCTYPE svg PUBLIC "-//W3C//DTD SVG 1.0//EN" "http://www.w3.org/TR/2001/REC-SVG-20010904/DTD/svg10.dtd">
<svg version="1.0" id="Layer_1" xmlns="http://www.w3.org/2000/svg" xmlns:xlink="http://www.w3.org/1999/xlink" x="0px" y="0px"
	 width="100px" height="100px" viewBox="0 0 100 100" enable-background="new 0 0 100 100" xml:space="preserve">
<g>
	<path fill-rule="evenodd" clip-rule="evenodd" d="M61.618,7.629c1.485-0.741-1.651-3.464-0.487-3.887
		c10.471,2.161,16.24,9.02,17.974,19.916c6.623,5.534,10.888,16.141,14.086,26.715c2.516,8.309,3.917,13.432-1.941,18.94
		c-4.642,4.364-12.685,6.051-17.974,9.232c0.857,4.511,5.094,9.075,1.943,13.598c-1.783,2.563-7.196,3.209-8.742,3.4
		c-3.139,0.389-8.311,0.428-12.629,0c-12.875-1.269-16.149-12.735-27.687-11.171c0-0.812,0-1.619,0-2.428
		c-3.866-0.717-9.178-1.471-12.144-3.887c-2.795-2.278-7.612-7.072-8.255-8.258c-4.042-7.447,3.806-14.059,7.77-20.399
		c3.606-5.767,6.1-11.171,9.229-15.06c-0.895-12.54,6.582-30.73,20.887-33.026C50.676,0.186,60.81,0.698,61.618,7.629z
		 M60.16,20.744c-0.816-1.611-0.784-4.072-1.941-5.343C58.602,16.959,59.592,22.549,60.16,20.744z M64.047,15.886
		c-4.415,0.287-3.791,6.268-2.916,9.228c5.375,1.152,11.534-1.863,16.519-0.971c-3.073-1.961-8.235-0.568-11.173,0.487
		C65.69,21.69,64.744,18.914,64.047,15.886z M65.99,21.229c1.918,0.391,5.746-3.373,2.428-5.829c-1.141,0.155-1.823,0.767-3.4,0.485
		C65.047,17.963,65.67,19.444,65.99,21.229z M54.818,23.658c2.257-0.454,4.233,1.89,5.828,0.484
		C59.888,23.25,54.379,22.588,54.818,23.658z M18.875,61.543c7.072-10.74,9.386-28.824,17.97-36.43
		C27.169,33.247,24.125,50.599,18.875,61.543z M66.477,27.543c2.108-1.007,4.629-0.601,6.313-0.972
		C70.754,25.647,67.646,26.17,66.477,27.543z M67.934,37.744c0-2.591,0-5.182,0-7.772c-1.133,0-2.268,0-3.4,0
		C65.375,32.854,64.454,37.499,67.934,37.744z M64.533,29c-1.041-0.9-3.559-0.327-5.344-0.485c-0.566,2.51,3.379,0.51,3.4,2.429
		c-0.596-0.156-3,0.078-1.459,0.485c1.881-0.537,1.73,1.719,2.916,0.487C63.196,30.193,64.371,30.72,64.533,29z M45.591,31.429
		c0.449,2.95,2.256,4.543,2.913,7.287c1.648-0.133,3.938,0.376,4.856-0.487c-0.366-3.355-1.737-5.71-1.942-9.229
		C48.577,28.91,47.141,30.229,45.591,31.429z M44.619,40.172c2.735,1.136,7.368,0.348,9.229-0.971
		c-2.07,0.036-3.398,0.812-5.829,0.485c-1.588-1.974-1.646-5.477-3.887-6.8C44.355,35.254,43.625,38.575,44.619,40.172z
		 M61.131,45.515c-2.832,0.729-4.145,2.977-4.854,5.829C59.768,51.272,59.615,47.561,61.131,45.515z M75.219,52.802
		c-4.544-3.297-4.449-19.157-13.113-12.144c2,5.675-4.268,8.697-3.887,12.628c2-2.856,3.286-6.427,5.828-8.742
		c1.187,1.86,4.355,0.246,4.857-1.459C70.88,46.136,72.918,51.697,75.219,52.802z M59.676,57.17
		c-1.798,0.345-0.838-2.073-1.941-2.426c-1.672,2.141-0.672,4.277-2.916,5.342c6.076,0.887,13.587,0.337,20.4,0.486
		c-3.433,4.015-7.999,6.896-12.629,9.713c-3.69-1.492-4.022-8.921-7.771-8.742c2.645,3.346,3.968,8.016,7.287,10.688
		c5.115-4.436,11.4-7.705,16.028-12.629c-1.829-0.552-2.213,0.463-2.915-0.973c0.592-0.055,1.149-0.145,0.973-0.971
		c-1.067-0.552-1.615-1.625-2.916-1.943c0.29,1.262-0.194,1.748-1.456,1.455c-0.247-1.858-0.441-3.769-2.431-3.884
		c0.069,0.841,1.58,3.978-0.484,3.884c-1.668-1.57-0.211-6.264-2.914-6.797c-0.343,2.303,1.391,5.059,0.486,6.313
		c-0.487,0-0.578,0.395-0.972,0.484c-1.479-2.244-0.116-7.331-2.915-8.253c-1.08,1.524,2.123,7.202,0,8.253
		c-1.582-1.17-1.117-4.385-1.459-6.797C57.825,50.882,61.367,55.553,59.676,57.17z M73.763,48.917c0.121-1.533,2.233-5.592,0-6.314
		C73.188,44.651,71.261,47.838,73.763,48.917z M56.276,41.144c-0.079,1.537,1.288,1.623,0.97,3.4c1.41-0.371,2.794-0.769,3.4-1.942
		c-0.898-0.074-0.298-1.647-0.971-1.944C58.143,40.42,57.96,41.533,56.276,41.144z M56.276,46.002
		c0.491-0.848-0.355-3.602-1.458-4.374C54.107,42.697,53.572,46.831,56.276,46.002z M50.446,54.258
		c-0.988-2.631,2.941-2.857,1.458-4.372c-2.121,0.811-1.69-5.099-2.915-6.801c-0.81,0-1.618,0-2.428,0
		C47.566,47.101,50.389,49.296,50.446,54.258z M77.649,53.286c-0.233-4.118,1.839-5.932,1.939-9.714
		c-1.829,0.373-2.318-0.594-3.885-0.487C76.076,46.764,74.544,52.344,77.649,53.286z"/>
</g>
</svg>
